<svg width="16" height="16" viewBox="0 0 16 16" fill="none" xmlns="http://www.w3.org/2000/svg">
<g clip-path="url(#clip0_3_13)">
<path d="M14.7747 3.77062C14.2657 3.99575 13.726 4.1436 13.1733 4.20928C13.7558 3.86091 14.1918 3.31263 14.4 2.66662C13.8533 2.99195 13.254 3.21995 12.6293 3.34328C12.2097 2.89434 11.6536 2.59659 11.0473 2.49634C10.441 2.39609 9.81863 2.49895 9.27685 2.78892C8.73507 3.07889 8.30426 3.53974 8.05141 4.09981C7.79857 4.65989 7.73784 5.2878 7.87867 5.88595C6.77008 5.83039 5.68556 5.5423 4.69553 5.04039C3.7055 4.53849 2.83209 3.83398 2.132 2.97262C1.8842 3.39825 1.75397 3.8821 1.75467 4.37462C1.75467 5.34128 2.24667 6.19528 2.99467 6.69528C2.55201 6.68135 2.11909 6.56181 1.732 6.34662V6.38128C1.73214 7.02508 1.95492 7.64903 2.36257 8.14732C2.77022 8.64562 3.33766 8.9876 3.96867 9.11528C3.55775 9.22664 3.12688 9.24306 2.70867 9.16328C2.88658 9.71744 3.23334 10.2021 3.7004 10.5494C4.16746 10.8966 4.73142 11.0891 5.31334 11.1C4.73499 11.5542 4.07279 11.8899 3.36459 12.0881C2.65639 12.2862 1.91609 12.3428 1.186 12.2546C2.46047 13.0742 3.94407 13.5094 5.45934 13.5079C10.588 13.5079 13.3927 9.25928 13.3927 5.57462C13.3927 5.45462 13.3893 5.33328 13.384 5.21462C13.9299 4.82006 14.4011 4.3313 14.7753 3.77128L14.7747 3.77062Z" fill="white"/>
</g>
<defs>
<clipPath id="clip0_3_13">
<rect width="16" height="16" fill="white"/>
</clipPath>
</defs>
</svg>
